<svg width="180" height="180" viewBox="0 0 180 180" fill="none" xmlns="http://www.w3.org/2000/svg">
  <!-- Background circle -->
  <rect width="180" height="180" rx="40" fill="#16a34a"/>

  <!-- Bowl / plate base -->
  <ellipse cx="90" cy="118" rx="48" ry="12" fill="white" opacity="0.25"/>
  <path d="M42 110 Q42 138 90 138 Q138 138 138 110 Z" fill="white" opacity="0.15"/>

  <!-- Leaf stem -->
  <line x1="90" y1="130" x2="90" y2="88" stroke="white" stroke-width="5" stroke-linecap="round"/>

  <!-- Left leaf -->
  <path d="M90 88 Q68 72 60 48 Q78 52 90 88Z" fill="white"/>
  <!-- Left leaf vein -->
  <path d="M90 88 Q74 66 64 52" stroke="#16a34a" stroke-width="2" stroke-linecap="round" opacity="0.6"/>

  <!-- Right leaf -->
  <path d="M90 88 Q112 72 120 48 Q102 52 90 88Z" fill="white"/>
  <!-- Right leaf vein -->
  <path d="M90 88 Q106 66 116 52" stroke="#16a34a" stroke-width="2" stroke-linecap="round" opacity="0.6"/>

  <!-- Dollar coin -->
  <circle cx="128" cy="118" r="18" fill="#facc15"/>
  <circle cx="128" cy="118" r="14" fill="#fbbf24"/>
  <text x="128" y="124" text-anchor="middle" font-size="16" font-weight="bold" fill="#92400e" font-family="Arial, sans-serif">$</text>
</svg>